Usar VLCPlayer, Gomplayer o similar para reproducir el video HD con los subtítulos srt.

Capturas:

 
http://korraflow.site11.com/kapturas/1x06Captura1.png
 
http://korraflow.site11.com/kapturas/1x06Captura2.png
 
http://korraflow.site11.com/kapturas/1x06Captura3.png



Video INFO:


General
Complete name                    : C:UsersClaudioKorra1x06 Y El Ganador Esestadoavatar.1x06 And The Winner Is... - The Legend of Korra.mp4
Format                           : MPEG-4
Format profile                   : Base Media / Version 2
Codec ID                         : mp42
File size                        : 284 MiB
Duration                         : 23mn 50s
Overall bit rate                 : 1 665 Kbps
Encoded date                     : UTC 2012-05-22 16:10:37
Tagged date                      : UTC 2012-05-22 16:16:22
Writing application              : HandBrake 0.9.6 2012022800

Video
ID                               : 1
Format                           : AVC
Format/Info                      : Advanced Video Codec
Format profile                   : Main@L3.1
Format settings, CABAC           : Yes
Format settings, ReFrames        : 4 frames
Format settings, GOP             : M=1, N=44
Codec ID                         : avc1
Codec ID/Info                    : Advanced Video Coding
Duration                         : 23mn 49s
Bit rate mode                    : Variable
Bit rate                         : 1 500 Kbps
Width                            : 1 280 pixels
Height                           : 720 pixels
Display aspect ratio             : 16:9
Frame rate mode                  : Variable
Frame rate                       : 23.976 fps
Minimum frame rate               : 7.992 fps
Maximum frame rate               : 23.981 fps
Color space                      : YUV
Chroma subsampling               : 4:2:0
Bit depth                        : 8 bits
Scan type                        : Progressive
Bits/(Pixel*Frame)               : 0.068
Stream size                      : 256 MiB (90%)
Writing library                  : x264 core 120

Audio
ID                               : 2
Format                           : AAC
Format/Info                      : Advanced Audio Codec
Format profile                   : LC
Codec ID                         : 40
Duration                         : 23mn 50s
Bit rate mode                    : Variable
Bit rate                         : 160 Kbps
Maximum bit rate                 : 222 Kbps
Channel(s)                       : 2 channels
Channel positions                : Front: L R
Sampling rate                    : 44.1 KHz
Compression mode                 : Lossy
Stream size                      : 27.3 MiB (10%)
Encoded date                     : UTC 2012-05-22 16:10:37
Tagged date                      : UTC 2012-05-22 16:16:21
